<svg width="12" height="14" viewBox="0 0 12 14" fill="none" xmlns="http://www.w3.org/2000/svg">
<path d="M7.87815 11.2C7.87815 12.1941 7.07227 13 6.07815 13C5.08404 13 4.27815 12.1941 4.27815 11.2M7.15606 3.54313C7.41735 3.27318 7.57815 2.90537 7.57815 2.5C7.57815 1.67157 6.90658 1 6.07815 1C5.24973 1 4.57815 1.67157 4.57815 2.5C4.57815 2.90537 4.73895 3.27318 5.00025 3.54313M9.67815 6.52C9.67815 5.69252 9.29887 4.89894 8.62374 4.31383C7.94861 3.72871 7.03293 3.4 6.07815 3.4C5.12337 3.4 4.2077 3.72871 3.53257 4.31383C2.85744 4.89894 2.47815 5.69252 2.47815 6.52C2.47815 7.88908 2.13863 8.89035 1.71499 9.60681C1.23216 10.4234 0.990738 10.8317 1.00027 10.9292C1.01118 11.0408 1.03126 11.076 1.12176 11.1422C1.20086 11.2 1.59826 11.2 2.39307 11.2H9.76324C10.558 11.2 10.9555 11.2 11.0345 11.1422C11.125 11.076 11.1451 11.0408 11.156 10.9292C11.1656 10.8317 10.9242 10.4234 10.4413 9.60681C10.0177 8.89035 9.67815 7.88908 9.67815 6.52Z" stroke="#323333" stroke-width="1.5" stroke-linecap="round" stroke-linejoin="round"/>
</svg>
