<svg width="16" height="16" viewBox="0 0 16 16" fill="none" xmlns="http://www.w3.org/2000/svg">
<path d="M12.0217 10.8C12.5753 10.0063 12.9 9.04106 12.9 8C12.9 7.63958 12.8611 7.28824 12.7872 6.94997M3.97828 10.8C3.42467 10.0063 3.1 9.04107 3.1 8C3.1 5.2938 5.2938 3.1 8 3.1C8.29549 3.1 8.58488 3.12616 8.86597 3.17628M11.1499 4.85L7.99993 8M15 8C15 11.866 11.866 15 8 15C4.13401 15 1 11.866 1 8C1 4.13401 4.13401 1 8 1C11.866 1 15 4.13401 15 8ZM8.7 8C8.7 8.3866 8.3866 8.7 8 8.7C7.6134 8.7 7.3 8.3866 7.3 8C7.3 7.6134 7.6134 7.3 8 7.3C8.3866 7.3 8.7 7.6134 8.7 8Z" stroke="#F0F1F2" stroke-width="1.5" stroke-linecap="round" stroke-linejoin="round"/>
</svg>
