<svg width="16" height="16" viewBox="0 0 16 16" fill="none" xmlns="http://www.w3.org/2000/svg">
<path d="M7.99999 13.9305C8.74305 14.5956 9.7243 15 10.8 15C13.1196 15 15 13.1196 15 10.8C15 8.86315 13.6889 7.23251 11.9059 6.74712M4.09412 6.74711C2.31105 7.2325 1 8.86314 1 10.8C1 13.1196 2.8804 15 5.2 15C7.51959 15 9.4 13.1196 9.4 10.8C9.4 10.2536 9.29568 9.73167 9.10587 9.25288M12.2 5.2C12.2 7.51959 10.3196 9.39999 8 9.39999C5.6804 9.39999 3.8 7.51959 3.8 5.2C3.8 2.8804 5.6804 1 8 1C10.3196 1 12.2 2.8804 12.2 5.2Z" stroke="#B1B3B3" stroke-width="1.5" stroke-linecap="round" stroke-linejoin="round"/>
</svg>
