<svg width="698" height="279" viewBox="0 0 698 279" fill="none" xmlns="http://www.w3.org/2000/svg">
<path d="M1 194.424C15.9859 198.934 35.8169 219.479 62.1831 203.945C88.5493 188.411 110.443 203.945 123.028 214.969C135.613 225.993 168.662 238.019 189.62 225.993C202.923 218.359 228.155 187.91 250.127 188.411C311.648 177.386 277.507 77.2777 315.704 67.1449C333.282 62.4821 332.606 78.6702 373.169 75.1625C378.915 74.6656 417.113 93.202 434.014 75.1625C450.915 57.123 480.324 90.6965 502.296 93.7031C524.268 96.7097 548.268 140.806 560.099 147.321C571.93 153.835 604.042 157.844 626.69 128.279C644.808 104.627 681.113 33.5714 697 1" stroke="#14A2B8" stroke-linecap="round"/>
<path d="M62.1831 203.945C35.8169 219.479 15.9859 198.934 1 194.424V279H697V1C681.113 33.5714 644.808 104.627 626.69 128.279C604.042 157.844 571.93 153.835 560.099 147.321C548.268 140.806 524.268 96.7097 502.296 93.7031C480.324 90.6965 450.915 57.123 434.014 75.1625C417.113 93.202 378.915 74.6656 373.169 75.1625C332.606 78.6702 333.282 62.4821 315.704 67.1449C277.507 77.2777 311.648 177.386 250.127 188.411C228.155 187.91 202.923 218.359 189.62 225.993C168.662 238.019 135.613 225.993 123.028 214.969C110.443 203.945 88.5493 188.411 62.1831 203.945Z" fill="url(#paint0_linear_4_24785)"/>
<defs>
<linearGradient id="paint0_linear_4_24785" x1="349" y1="1" x2="349" y2="262.5" gradientUnits="userSpaceOnUse">
<stop stop-color="#57CADB"/>
<stop offset="1" stop-color="#C4E8EE" stop-opacity="0"/>
</linearGradient>
</defs>
</svg>
