<svg width="14" height="14" viewBox="0 0 14 14" fill="none" xmlns="http://www.w3.org/2000/svg">
<path d="M9 13V9.4C9 9.02663 9 8.83995 8.92734 8.69734C8.86342 8.5719 8.76144 8.46991 8.63599 8.406C8.49339 8.33333 8.3067 8.33333 7.93333 8.33333H6.06667C5.6933 8.33333 5.50661 8.33333 5.36401 8.406C5.23856 8.46991 5.13658 8.5719 5.07266 8.69734C5 8.83995 5 9.02663 5 9.4V13M11.6667 13V3.13333C11.6667 2.3866 11.6667 2.01323 11.5213 1.72801C11.3935 1.47713 11.1895 1.27316 10.9387 1.14532C10.6534 1 10.2801 1 9.53333 1H4.46667C3.71993 1 3.34656 1 3.06135 1.14532C2.81046 1.27316 2.60649 1.47713 2.47866 1.72801C2.33333 2.01323 2.33333 2.3866 2.33333 3.13333V13M13 13H1M5.33333 4.33333H5.34M8.66667 4.33333H8.67333M5.66667 4.33333C5.66667 4.51743 5.51743 4.66667 5.33333 4.66667C5.14924 4.66667 5 4.51743 5 4.33333C5 4.14924 5.14924 4 5.33333 4C5.51743 4 5.66667 4.14924 5.66667 4.33333ZM9 4.33333C9 4.51743 8.85076 4.66667 8.66667 4.66667C8.48257 4.66667 8.33333 4.51743 8.33333 4.33333C8.33333 4.14924 8.48257 4 8.66667 4C8.85076 4 9 4.14924 9 4.33333Z" stroke="#B1B3B3" stroke-width="1.5" stroke-linecap="round" stroke-linejoin="round"/>
</svg>
