<svg width="16" height="15" viewBox="0 0 16 15" fill="none" xmlns="http://www.w3.org/2000/svg">
<path d="M13.8947 13.5263V8.36842M8 13.5263V6.15789M2.10526 13.5263L2.10526 10.5789M9.0365 2.49395L12.8448 3.92207M7.11488 2.7691L2.98964 5.86303M14.6763 3.53425C15.1079 3.96588 15.1079 4.6657 14.6763 5.09733C14.2446 5.52896 13.5448 5.52896 13.1132 5.09733C12.6816 4.6657 12.6816 3.96588 13.1132 3.53425C13.5448 3.10262 14.2446 3.10262 14.6763 3.53425ZM2.8868 5.74478C3.31843 6.17641 3.31843 6.87622 2.8868 7.30785C2.45517 7.73949 1.75536 7.73949 1.32372 7.30785C0.892092 6.87622 0.892092 6.17641 1.32372 5.74478C1.75536 5.31314 2.45517 5.31314 2.8868 5.74478ZM8.78154 1.32372C9.21317 1.75536 9.21317 2.45517 8.78154 2.8868C8.34991 3.31843 7.65009 3.31843 7.21846 2.8868C6.78683 2.45517 6.78683 1.75536 7.21846 1.32372C7.65009 0.892092 8.34991 0.892092 8.78154 1.32372Z" stroke="#B1B3B3" stroke-width="1.5" stroke-linecap="round" stroke-linejoin="round"/>
</svg>
