<svg width="24" height="24" viewBox="0 0 24 24" fill="none" xmlns="http://www.w3.org/2000/svg">
<path d="M7.24229 11.0827C7.6908 9.40906 9.4111 7.68875 11.0847 7.24024L21.5187 4.44404C23.1923 3.99554 24.1854 4.98867 23.7369 6.66227L20.9407 17.0963C20.4922 18.7699 18.7719 20.4902 17.0983 20.9387L6.66432 23.7349C4.99071 24.1834 3.99758 23.1902 4.44609 21.5166L7.24229 11.0827Z" fill="#FBD36A"/>
<path d="M3.05936 6.89965C3.50787 5.22604 5.22818 3.50574 6.90178 3.05723L17.3358 0.261027C19.0094 -0.18748 20.0025 0.805654 19.554 2.47926L16.7578 12.9132C16.3093 14.5868 14.589 16.3072 12.9154 16.7557L2.48139 19.5519C0.807793 20.0004 -0.185343 19.0072 0.263165 17.3336L3.05936 6.89965Z" fill="#A67700"/>
</svg>
