<svg width="13" height="14" viewBox="0 0 13 14" fill="none" xmlns="http://www.w3.org/2000/svg">
<path d="M2.512 1.384L1.576 2.632C1.39061 2.87919 1.29791 3.00278 1.30007 3.10624C1.30194 3.19626 1.34415 3.28069 1.41505 3.33621C1.49652 3.4 1.65102 3.4 1.96 3.4H10.84C11.149 3.4 11.3035 3.4 11.385 3.33621C11.4559 3.28069 11.4981 3.19626 11.4999 3.10624C11.5021 3.00278 11.4094 2.87919 11.224 2.632L10.288 1.384M2.512 1.384C2.6176 1.2432 2.6704 1.1728 2.73732 1.12203C2.79658 1.07705 2.86369 1.0435 2.93523 1.02307C3.016 1 3.104 1 3.28 1H9.52C9.696 1 9.784 1 9.86477 1.02307C9.93631 1.0435 10.0034 1.07705 10.0627 1.12203C10.1296 1.1728 10.1824 1.2432 10.288 1.384M2.512 1.384L1.384 2.888C1.24152 3.07797 1.17029 3.17295 1.1197 3.27755C1.07481 3.37037 1.04207 3.46859 1.02229 3.56977C1 3.68381 1 3.80254 1 4.04L1 11.08C1 11.7521 1 12.0881 1.13079 12.3448C1.24584 12.5706 1.42942 12.7542 1.65521 12.8692C1.91191 13 2.24794 13 2.92 13L9.88 13C10.5521 13 10.8881 13 11.1448 12.8692C11.3706 12.7542 11.5542 12.5706 11.6692 12.3448C11.8 12.0881 11.8 11.7521 11.8 11.08V4.04C11.8 3.80254 11.8 3.68381 11.7777 3.56978C11.7579 3.46859 11.7252 3.37037 11.6803 3.27755C11.6297 3.17295 11.5585 3.07797 11.416 2.888L10.288 1.384M8.8 5.8C8.8 6.43652 8.54714 7.04697 8.09706 7.49706C7.64697 7.94714 7.03652 8.2 6.4 8.2C5.76348 8.2 5.15303 7.94714 4.70294 7.49706C4.25286 7.04697 4 6.43652 4 5.8" stroke="#B1B3B3" stroke-width="1.5" stroke-linecap="round" stroke-linejoin="round"/>
</svg>
