<svg width="16" height="14" viewBox="0 0 16 14" fill="none" xmlns="http://www.w3.org/2000/svg">
<path d="M10.3333 9.66667V3.13333C10.3333 2.3866 10.3333 2.01323 10.188 1.72801C10.0602 1.47713 9.8562 1.27316 9.60532 1.14532C9.3201 1 8.94674 1 8.2 1H3.13333C2.3866 1 2.01323 1 1.72801 1.14532C1.47713 1.27316 1.27316 1.47713 1.14532 1.72801C1 2.01323 1 2.3866 1 3.13333V7.53333C1 8.28007 1 8.65344 1.14532 8.93865C1.27316 9.18954 1.47713 9.39351 1.72801 9.52134C2.01323 9.66667 2.3866 9.66667 3.13333 9.66667H10.3333ZM10.3333 9.66667H13.2667C13.64 9.66667 13.8267 9.66667 13.9693 9.594C14.0948 9.53009 14.1968 9.4281 14.2607 9.30266C14.3333 9.16005 14.3333 8.97337 14.3333 8.6V6.77516C14.3333 6.6121 14.3333 6.53057 14.3149 6.45385C14.2986 6.38582 14.2716 6.32079 14.2351 6.26114C14.1939 6.19387 14.1362 6.13622 14.0209 6.02091L12.6458 4.64575C12.5305 4.53045 12.4728 4.4728 12.4055 4.43157C12.3459 4.39502 12.2808 4.36808 12.2128 4.35175C12.1361 4.33333 12.0546 4.33333 11.8915 4.33333H10.3333M5.66667 11.3333C5.66667 12.2538 4.92047 13 4 13C3.07953 13 2.33333 12.2538 2.33333 11.3333C2.33333 10.4129 3.07953 9.66667 4 9.66667C4.92047 9.66667 5.66667 10.4129 5.66667 11.3333ZM13 11.3333C13 12.2538 12.2538 13 11.3333 13C10.4129 13 9.66667 12.2538 9.66667 11.3333C9.66667 10.4129 10.4129 9.66667 11.3333 9.66667C12.2538 9.66667 13 10.4129 13 11.3333Z" stroke="#B1B3B3" stroke-width="1.5" stroke-linecap="round" stroke-linejoin="round"/>
</svg>
