<svg width="16" height="16" viewBox="0 0 16 16" fill="none" xmlns="http://www.w3.org/2000/svg">
<rect width="16" height="16" rx="8" fill="#EBFAF3"/>
<path d="M7.745 12.15C6.365 12.15 5.215 11.435 5.29 9.795H6.23C6.21 10.75 6.71 11.3 7.745 11.295C8.62 11.285 9.26 10.845 9.26 10.045C9.26 9.05 8.63 8.65 7.71 8.65H6.955V7.82H7.72C8.515 7.82 8.995 7.24 8.995 6.565C8.995 5.835 8.51 5.415 7.745 5.415C6.97 5.415 6.435 5.85 6.49 6.815H5.55C5.525 5.285 6.36 4.58 7.75 4.58C9.155 4.58 9.915 5.37 9.915 6.53C9.915 7.265 9.52 8.055 8.495 8.215C9.61 8.31 10.19 8.95 10.19 10.04C10.19 11.405 9.145 12.15 7.745 12.15Z" fill="#008F51"/>
</svg>
