<svg width="13" height="14" viewBox="0 0 13 14" fill="none" xmlns="http://www.w3.org/2000/svg">
<path d="M4.70735 5.17374C4.85047 4.76688 5.13297 4.42381 5.5048 4.20528C5.87664 3.98675 6.31381 3.90687 6.7389 3.97978C7.16399 4.05269 7.54956 4.2737 7.82731 4.60365C8.10507 4.9336 8.25708 5.35121 8.25644 5.7825C8.25644 7.00003 6.43015 7.6088 6.43015 7.6088M6.47887 10.0439H6.48496M1 4.52934V9.47074C1 9.67933 1 9.78362 1.03073 9.87664C1.05792 9.95893 1.10237 10.0345 1.1611 10.0982C1.22749 10.1702 1.31866 10.2209 1.501 10.3222L6.00585 12.8249C6.17849 12.9208 6.26482 12.9688 6.35624 12.9876C6.43715 13.0042 6.5206 13.0042 6.60151 12.9876C6.69293 12.9688 6.77925 12.9208 6.9519 12.8249L11.4568 10.3222C11.6391 10.2209 11.7303 10.1702 11.7966 10.0982C11.8554 10.0345 11.8998 9.95893 11.927 9.87664C11.9577 9.78362 11.9577 9.67933 11.9577 9.47074V4.52934C11.9577 4.32075 11.9577 4.21645 11.927 4.12344C11.8998 4.04115 11.8554 3.96561 11.7966 3.90188C11.7303 3.82984 11.6391 3.77919 11.4568 3.67789L6.9519 1.17519C6.77925 1.07928 6.69293 1.03132 6.60151 1.01252C6.5206 0.995878 6.43715 0.995878 6.35624 1.01252C6.26482 1.03132 6.17849 1.07928 6.00585 1.17519L1.501 3.67789C1.31866 3.77919 1.22749 3.82984 1.1611 3.90188C1.10237 3.96561 1.05792 4.04115 1.03073 4.12344C1 4.21645 1 4.32075 1 4.52934Z" stroke="#B1B3B3" stroke-width="1.5" stroke-linecap="round" stroke-linejoin="round"/>
</svg>
